HIERARCHY
ROOT hip
{
	OFFSET 0.000000 0.000000 0.000000 
	CHANNELS 6 Xposition Yposition Zposition Xrotation Zrotation Yrotation
	JOINT abdomen
	{
		OFFSET 0.000000 3.402643 0.000000 
		CHANNELS 3 Xrotation Zrotation Yrotation
		JOINT chest
		{
			OFFSET 0.000000 8.438565 -0.680529 
			CHANNELS 3 Xrotation Zrotation Yrotation
			JOINT neck
			{
				OFFSET 0.000000 10.207942 -0.272212 
				CHANNELS 3 Xrotation Zrotation Yrotation
				JOINT head
				{
					OFFSET 0.000000 3.130431 0.000000 
					CHANNELS 3 Xrotation Zrotation Yrotation
					End Site
					{
						OFFSET 0.000000 3.130435 0.000000 
					}
				}
			}
			JOINT lCollar
			{
				OFFSET 3.470700 6.669187 -0.816635 
				CHANNELS 3 Yrotation Zrotation Xrotation
				JOINT lShldr
				{
					OFFSET 3.198488 0.000000 0.000000 
					CHANNELS 3 Zrotation Yrotation Xrotation
					JOINT lForeArm
					{
						OFFSET 10.139888 0.000000 0.000000 
						CHANNELS 3 Yrotation Zrotation Xrotation
						JOINT lHand
						{
							OFFSET 8.370511 0.000000 0.000000 
							CHANNELS 3 Zrotation Yrotation Xrotation
							End Site
							{
								OFFSET 4.083176 0.000000 0.000000 
							}
						}
					}
				}
			}
			JOINT rCollar
			{
				OFFSET -3.470700 6.669187 -0.816635 
				CHANNELS 3 Yrotation Zrotation Xrotation
				JOINT rShldr
				{
					OFFSET -3.198488 0.000000 0.000000 
					CHANNELS 3 Zrotation Yrotation Xrotation
					JOINT rForeArm
					{
						OFFSET -10.139888 0.000000 0.000000 
						CHANNELS 3 Yrotation Zrotation Xrotation
						JOINT rHand
						{
							OFFSET -8.370511 0.000000 0.000000 
							CHANNELS 3 Zrotation Yrotation Xrotation
							End Site
							{
								OFFSET -4.083176 0.000000 0.000000 
							}
						}
					}
				}
			}
		}
	}
	JOINT lThigh
	{
		OFFSET 5.308129 -1.633274 1.361059 
		CHANNELS 3 Xrotation Zrotation Yrotation
		JOINT lShin
		{
			OFFSET -2.041588 -20.007561 0.000000 
			CHANNELS 3 Xrotation Zrotation Yrotation
			JOINT lFoot
			{
				OFFSET 0.000000 -19.190928 -1.224953 
				CHANNELS 3 Xrotation Yrotation Zrotation
				End Site
				{
					OFFSET 0.000000 -2.449906 4.627600 
				}
			}
		}
	}
	JOINT rThigh
	{
		OFFSET -5.308129 -1.633274 1.361059 
		CHANNELS 3 Xrotation Zrotation Yrotation
		JOINT rShin
		{
			OFFSET 2.041588 -20.007561 0.000000 
			CHANNELS 3 Xrotation Zrotation Yrotation
			JOINT rFoot
			{
				OFFSET 0.000000 -19.190928 -1.224953 
				CHANNELS 3 Xrotation Yrotation Zrotation
				End Site
				{
					OFFSET 0.000000 -2.449906 4.627600 
				}
			}
		}
	}
}
MOTION
Frames: 13
Frame Time: 0.033333
-1.757856 46.490192 -1.399567 -3.876953 14.052735 25.830076 -0.878906 -17.421877 14.040045 0.000000 0.000000 0.000000 -25.673828 8.789063 -59.246555 0.000000 0.000000 0.000000 0.000000 0.000000 0.000000 -32.526474 19.578680 59.981094 -86.308594 22.255859 20.611536 -2.207031 0.634766 7.060655 0.000000 0.000000 0.000000 33.886719 20.947266 19.749584 -6.845703 3.027344 -0.283719 -49.716797 1.962891 10.439788 6.738561 -6.318460 -21.013134 -3.149737 -13.660514 10.629210 -1.217951 6.218486 6.133457 -18.984306 -35.448639 -9.044908 33.487446 -0.525481 -15.855178 14.377531 -8.211553 11.673371 
0.559827 45.930367 -4.657757 2.636719 8.769463 61.691124 -2.646484 -15.468749 14.589844 0.000000 0.000000 0.000000 -19.531248 10.546875 -43.425945 0.000000 0.000000 0.000000 0.000000 0.000000 0.000000 -44.746094 14.218750 53.644974 -60.800781 22.968750 9.488377 5.703125 2.041015 -3.037110 0.000000 0.000000 0.000000 45.859375 18.105469 25.383892 -5.312500 2.275391 -3.769531 -52.500000 0.781250 5.244276 2.588145 -6.669876 -14.321361 -1.766930 -13.063940 10.099141 -0.703278 6.499703 7.510052 -27.211597 -26.508627 -1.285929 41.314297 -3.037742 -12.062634 18.361040 -5.421330 9.876636 
-0.123162 46.266262 -9.046799 4.218750 0.527344 99.843857 -4.052734 -13.027344 15.947264 0.000000 0.000000 0.000000 -12.832031 10.546875 -25.457197 0.000000 0.000000 0.000000 0.000000 0.000000 0.000000 -57.285156 6.406250 47.745770 -33.037109 18.310549 -1.985489 14.140626 5.449219 -14.188525 0.000000 0.000000 0.000000 58.652344 14.355468 30.871563 -3.691406 1.542969 -7.763936 -55.449219 -0.722656 -0.468873 -1.581065 -6.087904 -5.493451 -0.896403 -11.593645 9.368212 -0.523966 6.992692 8.257773 -34.811977 -14.432808 5.142891 50.362469 -6.335702 -7.812381 22.669836 -1.509834 7.565325 
-2.799133 47.083607 -10.636705 0.527344 -4.042963 130.399658 -4.580078 -9.687630 18.084084 0.000000 0.000000 0.000000 -8.437499 9.667969 -10.340157 0.000000 0.000000 0.000000 0.000000 0.000000 0.000000 -66.279297 -1.630859 43.964565 -11.533203 11.162109 -8.488219 21.044922 9.755859 -23.300779 0.000000 0.000000 0.000000 68.994141 11.308593 36.455078 -2.236328 1.484375 -10.781250 -57.939457 -2.470703 -5.165978 -5.030457 -3.140069 2.703996 0.302205 -10.245584 9.058276 -0.237456 7.058064 8.664157 -39.778187 -2.364093 9.147833 58.969864 -9.270809 -4.998956 25.294485 2.562009 7.244050 
-3.896393 47.677021 -9.192354 -4.755859 -2.822265 148.691406 -5.800781 -5.292969 19.657303 0.000000 0.000000 0.000000 -6.503906 9.306642 -0.878906 0.000000 0.000000 0.000000 0.000000 0.000000 0.000000 -70.625000 -6.640625 42.900391 1.181641 5.322266 -10.899343 25.781250 13.281251 -28.825882 0.000000 0.000000 0.000000 75.673828 9.384766 42.306282 -1.220703 2.011719 -11.142577 -59.316402 -3.691406 -8.223284 -7.412109 2.099970 9.122405 0.828280 -9.692985 8.450550 -0.150696 7.480881 9.014678 -43.375210 8.016646 8.958741 64.738411 -11.224977 -3.252369 23.541002 5.302679 6.526171 
-3.403746 47.531471 -6.471597 -8.798827 1.572266 157.666290 -6.865234 -0.195313 18.437498 0.000000 0.000000 0.000000 -6.689453 9.492371 3.165591 0.000000 0.000000 0.000000 0.000000 0.000000 0.000000 -72.314453 -8.447267 43.113796 6.503906 2.333984 -10.967194 29.218750 15.546875 -30.954418 0.000000 0.000000 0.000000 78.730469 9.033203 46.466373 -0.595703 1.875000 -9.404297 -60.058590 -4.296875 -9.512330 -9.057102 8.078865 11.072185 0.807403 -9.329546 7.777759 -0.277687 7.625789 8.654950 -44.778625 13.307468 4.349017 65.355194 -12.758986 -1.332603 20.069855 6.430854 5.570803 
-1.791445 46.826088 -3.806821 -11.621094 8.085938 160.322266 -5.117187 7.900391 15.108765 0.000000 0.000000 0.000000 -8.457032 8.085938 7.021485 0.000000 0.000000 0.000000 0.000000 0.000000 0.000000 -75.117188 -6.416015 44.111328 7.343750 1.982422 -11.152681 34.355465 16.562502 -30.273441 0.000000 0.000000 0.000000 78.554688 11.416016 49.933575 0.507812 -0.117188 -10.644531 -61.152344 -6.474609 -11.309692 -10.319010 15.617723 10.420083 3.258688 -9.243159 7.610543 -2.253837 7.635937 7.526266 -39.933197 17.125431 -2.809983 57.596081 -13.608047 3.698437 13.727362 4.996043 3.174523 
-0.291110 46.131905 -1.959393 -13.027345 11.064453 157.304688 0.527344 15.976540 14.983177 0.000000 0.000000 0.000000 -12.832031 2.109375 13.887079 0.000000 0.000000 0.000000 0.000000 0.000000 0.000000 -80.136719 -4.580078 47.840633 7.861328 0.605469 -12.607422 39.326172 18.007813 -29.791903 0.000000 0.000000 0.000000 73.593750 15.263673 47.883434 1.650391 -1.865234 -9.013352 -63.173828 -8.691407 -12.872570 -16.343681 21.886017 12.851954 17.033918 -7.498194 4.784361 -5.689879 6.841278 3.674234 -32.433643 20.482821 -0.736081 45.283600 -10.859332 6.537414 5.876778 2.768972 3.789308 
-0.403075 43.041656 -1.231619 -15.136717 8.085938 153.087311 5.791016 15.996095 19.377691 0.000000 0.000000 0.000000 -20.390625 -2.470703 17.733953 0.000000 0.000000 0.000000 0.000000 0.000000 0.000000 -82.597656 -7.958984 53.621693 7.734375 -0.947266 -14.697269 37.871094 21.472996 -34.009548 0.000000 0.000000 0.000000 68.544922 19.033203 43.284435 1.572266 -1.455078 -7.616939 -64.550781 -8.535156 -12.872543 -31.591028 25.350580 14.191472 38.242798 -6.114409 2.749465 -4.051554 3.228539 1.875482 -27.425285 21.935949 8.430380 33.632359 -7.724224 2.406844 5.491363 4.589469 5.327375 
1.018884 45.191395 -0.806150 -15.830077 4.570313 151.690216 9.833984 13.339845 22.666016 0.000000 0.000000 0.000000 -26.201170 -5.644531 17.557631 0.000000 0.000000 0.000000 0.000000 0.000000 0.000000 -82.939453 -13.720702 58.327759 7.724609 -1.718750 -16.367188 37.089844 24.111328 -34.345703 0.000000 0.000000 0.000000 63.876953 21.650393 41.058296 1.054687 -0.048828 -11.171875 -64.863281 -10.800781 -14.181519 -44.840233 25.973213 13.735046 55.165035 -1.332391 -1.035362 4.780192 -0.685209 1.427753 -20.350569 18.328932 15.780823 19.528406 -5.177771 -0.740063 5.045299 5.246542 7.066637 
0.895723 46.109509 0.391879 -16.874998 3.164063 150.479050 9.648438 12.812500 26.544289 0.000000 0.000000 0.000000 -29.189451 -9.316406 14.226935 0.000000 0.000000 0.000000 0.000000 0.000000 0.000000 -81.816406 -16.269533 58.708202 8.417968 0.712891 -16.015627 37.968750 22.060547 -32.041016 0.000000 0.000000 0.000000 61.044926 19.755859 37.659554 0.683594 1.650391 -11.201453 -62.333981 -12.685547 -15.881052 -54.705311 23.954226 6.941087 65.497841 1.264392 -0.438074 17.297436 -1.917546 -1.320115 -14.754339 15.745732 21.722586 6.061994 -2.946279 -2.550081 4.450162 2.788871 3.857906 
0.548630 46.255066 2.653578 -17.929688 4.570313 149.073044 7.363281 14.228516 27.939451 0.000000 0.000000 0.000000 -27.949217 -8.974609 13.318789 0.000000 0.000000 0.000000 0.000000 0.000000 0.000000 -79.560547 -12.070312 54.833984 7.685547 3.349610 -14.160728 40.546875 20.301167 -31.802784 0.000000 0.000000 0.000000 64.882813 16.669922 37.375851 -0.253906 1.806641 -9.228516 -60.703121 -11.103515 -15.255784 -58.921379 21.863501 0.365387 70.374443 1.614586 1.891317 20.959808 1.331136 -3.135630 -14.042004 17.382629 21.897884 0.239629 -1.199955 -0.499751 3.406795 -0.108280 -2.443803 
0.559827 46.031136 3.582890 -18.828123 7.714844 147.110687 9.824219 14.755858 28.811081 0.000000 0.000000 0.000000 -29.882813 -6.347656 14.559467 0.000000 0.000000 0.000000 0.000000 0.000000 0.000000 -78.056641 -11.123048 53.601631 7.626952 1.806641 -13.447267 41.582031 20.703127 -32.666016 0.000000 0.000000 0.000000 70.751953 18.378908 40.686676 -0.195313 0.917969 -10.810548 -62.216793 -10.937499 -14.816304 -58.106728 23.131893 -3.552112 67.792625 1.468414 3.446201 24.944105 2.061040 -1.472724 -15.106462 21.862734 18.680483 2.060321 -1.324261 2.874332 3.415625 -0.400577 -3.133270 
